# xmcd
#
# Track frame offsets:
#	150
#	13371
#	30934
#	42324
#	54234
#	66426
#	77983
#	91327
#	104818
#	118037
#	129385
#	139054
#	152949
#	165817
#	178867
#	192665
#	204995
#	214910
#	232463
#	252377
#
# Disc length: 3544 seconds
#
# Revision: 0
# Processed by: cddbd v1.5.2PL0 Copyright (c) Steve Scherf et al.
# Submitted via: dBpowerAMP V4.0
#
DISCID=2a0dd614
DTITLE=Banda la pirinola - 20 grandes exitos
DYEAR=1990
DGENRE=banda
TTITLE0=Banda la pririnola - Aca entre nos
TTITLE1=Banda la pririnola - rescuerdos tristes
TTITLE2=Banda la pririnola - se me olvido otra ves
TTITLE3=Banda la pririnola - aguanta corazon
TTITLE4=Banda la pririnola - adoro
TTITLE5=Banda la pririnola - simplemente te amo
TTITLE6=Banda la pririnola - el celoso
TTITLE7=Banda la pririnolael hijo desobediente
TTITLE8=Banda la pririnola - quiero ser feliz
TTITLE9=Banda la pririnola - nuestra cita de amor
TTITLE10=Banda la pririnola - otra botella
TTITLE11=Banda la pririnola - la secretaria
TTITLE12=Banda la pririnola - lola la bailera
TTITLE13=Banda la pririnola - el viejo joven
TTITLE14=Banda la pririnola - la cococha
TTITLE15=Banda la pririnola - yo quiero bailar
TTITLE16=Banda la pririnola - piel morena
TTITLE17=Banda la pririnola - pata de perro
TTITLE18=Banda la pririnola - la mujer que ame
TTITLE19=Banda la pririnola - la pirinola
EXTD=
EXTT0=
EXTT1=
EXTT2=
EXTT3=
EXTT4=
EXTT5=
EXTT6=
EXTT7=
EXTT8=
EXTT9=
EXTT10=
EXTT11=
EXTT12=
EXTT13=
EXTT14=
EXTT15=
EXTT16=
EXTT17=
EXTT18=
EXTT19=
PLAYORDER=
